<?xml version="1.0" standalone="no"?>
<!DOCTYPE svg PUBLIC "-//W3C//DTD SVG 20010904//EN"
 "http://www.w3.org/TR/2001/REC-SVG-20010904/DTD/svg10.dtd">
<svg version="1.0" xmlns="http://www.w3.org/2000/svg"
 width="220.000000pt" height="220.000000pt" viewBox="0 0 220.000000 220.000000"
 preserveAspectRatio="xMidYMid meet">

<g transform="translate(0.000000,220.000000) scale(0.100000,-0.100000)"
fill="#000000" stroke="none">
<path d="M357 1453 c-4 -3 -7 -102 -7 -220 0 -206 1 -213 20 -213 19 0 20 8
22 195 l3 196 245 0 245 0 3 -306 2 -305 -140 0 c-133 0 -140 -1 -140 -20 0
-19 7 -20 160 -20 l160 0 -2 348 -3 347 -281 3 c-154 1 -283 -1 -287 -5z"/>
<path d="M574 1326 c-72 -32 -95 -109 -49 -164 l25 -30 -35 -36 c-29 -32 -35
-45 -35 -83 0 -88 60 -143 157 -143 68 0 113 26 142 84 21 42 22 52 12 86 -6
21 -26 51 -43 65 l-32 27 22 16 c60 47 43 140 -33 176 -40 19 -89 20 -131 2z
m121 -61 c30 -29 31 -45 4 -79 -25 -32 -85 -36 -117 -8 -36 29 -33 76 6 96 41
23 79 19 107 -9z m-5 -180 c75 -39 63 -131 -20 -156 -68 -20 -140 22 -140 82
0 11 15 36 34 55 38 38 77 44 126 19z"/>
<path d="M1014 1231 c-9 -10 -3 -20 16 -26 18 -6 20 -15 20 -116 0 -102 -1
-109 -20 -109 -13 0 -20 -7 -20 -19 0 -16 7 -19 57 -17 60 2 79 17 44 36 -17
8 -20 19 -18 53 3 58 21 54 79 -18 47 -58 92 -85 111 -66 5 5 -14 31 -42 59
-28 28 -51 55 -51 60 0 5 11 14 24 20 57 26 69 97 22 127 -19 12 -211 26 -222
16z m190 -47 c37 -36 0 -77 -65 -72 -40 3 -44 6 -47 31 -2 16 -1 35 2 43 8 20
90 19 110 -2z"/>
<path d="M1482 1227 c-5 -6 -28 -61 -51 -122 -23 -60 -49 -115 -58 -122 -25
-19 -9 -40 31 -39 44 2 54 11 33 34 -13 15 -14 22 -4 42 10 20 21 26 54 28 38
3 44 0 57 -26 13 -26 13 -30 -1 -44 -23 -24 -9 -35 43 -32 56 3 65 10 38 32
-19 15 -73 145 -90 215 -8 33 -37 53 -52 34z m27 -98 c16 -46 14 -49 -19 -49
-34 0 -34 1 -18 47 15 41 23 42 37 2z"/>
<path d="M1713 1227 c-2 -4 7 -21 22 -39 37 -44 82 -138 81 -170 -1 -15 -10
-33 -20 -41 -29 -21 -13 -33 41 -32 37 1 49 5 51 18 2 10 -3 17 -12 17 -12 0
-16 11 -16 45 0 36 9 59 41 110 22 36 45 65 50 65 5 0 9 8 9 18 0 15 -7 19
-35 17 -42 -3 -52 -10 -37 -28 8 -10 5 -23 -14 -55 -14 -23 -28 -42 -32 -42
-4 0 -17 19 -30 42 -21 40 -22 43 -6 55 10 7 15 16 11 19 -9 9 -98 10 -104 1z"/>
</g>
</svg>
